<svg width="42" height="34" xmlns="http://www.w3.org/2000/svg" fill="none">
 <defs>
  <clipPath id="joystick">
   <rect id="svg_1" fill="white" height="50" width="50"/>
  </clipPath>
 </defs>
 <g>
  <title>Layer 1</title>
  <g id="svg_2" clip-path="url(#joystick)">
   <path id="svg_3" fill="#2A7AE4" d="m40.9557,25.5208l-2.2707,-15.9583c-0.5833,-4.1042 -4.1039,-7.1458 -8.2495,-7.1458l-18.874,0c-4.1456,0 -7.6662,3.0416 -8.2495,7.1458l-2.27071,15.9583c-0.45831,3.2084 2.02072,6.0625 5.24971,6.0625c1.4166,0 2.7498,-0.5625 3.7498,-1.5625l4.708,-4.6875l12.4993,0l4.6873,4.6875c0.9999,1 2.354,1.5625 3.7498,1.5625c3.2498,0 5.7288,-2.8541 5.2705,-6.0625zm-22.0404,-10.6041l-4.1665,0l0,4.1666l-2.0832,0l0,-4.1666l-4.1664,0l0,-2.0834l4.1664,0l0,-4.1666l2.0832,0l0,4.1666l4.1665,0l0,2.0834zm8.3328,-2.0834c-1.1457,0 -2.0832,-0.9375 -2.0832,-2.0833c0,-1.1458 0.9375,-2.0833 2.0832,-2.0833c1.1458,0 2.0833,0.9375 2.0833,2.0833c0,1.1458 -0.9375,2.0833 -2.0833,2.0833zm4.1665,6.25c-1.1458,0 -2.0832,-0.9375 -2.0832,-2.0833c0,-1.1458 0.9374,-2.0833 2.0832,-2.0833c1.1457,0 2.0832,0.9375 2.0832,2.0833c0,1.1458 -0.9375,2.0833 -2.0832,2.0833z"/>
  </g>
 </g>
</svg>