<svg width="176" height="32" xmlns="http://www.w3.org/2000/svg" fill="none">
 <defs>
  <clipPath id="clip0_1_242">
   <rect id="svg_1" fill="white" height="50" width="49.9972"/>
  </clipPath>
 </defs>
 <g>
  <title>Layer 1</title>
  <g id="svg_2" clip-path="url(#clip0_1_242)">
   <path id="svg_3" fill="#2A7AE4" d="m40.9557,24.5208l-2.2707,-15.9583c-0.5833,-4.1042 -4.1039,-7.1458 -8.2495,-7.1458l-18.874,0c-4.1456,0 -7.6662,3.0416 -8.2495,7.1458l-2.27071,15.9583c-0.45831,3.2084 2.02072,6.0625 5.24971,6.0625c1.4166,0 2.7498,-0.5625 3.7498,-1.5625l4.708,-4.6875l12.4993,0l4.6873,4.6875c0.9999,1 2.354,1.5625 3.7498,1.5625c3.2498,0 5.7288,-2.8541 5.2705,-6.0625zm-22.0404,-10.6041l-4.1665,0l0,4.1666l-2.0832,0l0,-4.1666l-4.1664,0l0,-2.0834l4.1664,0l0,-4.1666l2.0832,0l0,4.1666l4.1665,0l0,2.0834zm8.3328,-2.0834c-1.1457,0 -2.0832,-0.9375 -2.0832,-2.0833c0,-1.1458 0.9375,-2.0833 2.0832,-2.0833c1.1458,0 2.0833,0.9375 2.0833,2.0833c0,1.1458 -0.9375,2.0833 -2.0833,2.0833zm4.1665,6.25c-1.1458,0 -2.0832,-0.9375 -2.0832,-2.0833c0,-1.1458 0.9374,-2.0833 2.0832,-2.0833c1.1457,0 2.0832,0.9375 2.0832,2.0833c0,1.1458 -0.9375,2.0833 -2.0832,2.0833z"/>
  </g>
  <path id="svg_4" fill="#464646" d="m124.081,23c-1.417,1.4167 -3.067,2.125 -4.95,2.125c-1.167,0 -2.267,-0.2333 -3.3,-0.7c-1.017,-0.4666 -1.908,-1.1083 -2.675,-1.925c-0.75,-0.8166 -1.35,-1.775 -1.8,-2.875c-0.433,-1.1166 -0.65,-2.3166 -0.65,-3.6c0,-1.2166 0.217,-2.3583 0.65,-3.425c0.45,-1.0833 1.059,-2.025 1.825,-2.825c0.783,-0.8166 1.7,-1.4583 2.75,-1.925c1.05,-0.4833 2.192,-0.725 3.425,-0.725c1.666,0 3.091,0.35 4.275,1.05c1.2,0.7 2.099,1.6417 2.699,2.825l-2.574,1.9c-0.45,-0.8833 -1.084,-1.5583 -1.9,-2.025c-0.8,-0.4666 -1.675,-0.7 -2.625,-0.7c-0.75,0 -1.442,0.1584 -2.075,0.475c-0.617,0.3167 -1.15,0.75 -1.6,1.3c-0.433,0.55 -0.775,1.1834 -1.025,1.9c-0.233,0.7167 -0.35,1.475 -0.35,2.275c0,0.8334 0.133,1.6167 0.4,2.35c0.267,0.7167 0.633,1.3417 1.1,1.875c0.467,0.5334 1.017,0.9584 1.65,1.275c0.65,0.3 1.35,0.45 2.1,0.45c1.716,0 3.266,-0.8083 4.65,-2.425l0,-1.25l-3.575,0l0,-2.525l6.424,0l0,9.125l-2.849,0l0,-2z"/>
  <path id="svg_5" fill="#464646" d="m135.62,25.25c-1.05,0 -2,-0.175 -2.85,-0.525c-0.85,-0.3666 -1.575,-0.8583 -2.175,-1.475c-0.6,-0.6166 -1.066,-1.3333 -1.4,-2.15c-0.316,-0.8166 -0.474,-1.675 -0.474,-2.575c0,-0.9333 0.158,-1.8083 0.474,-2.625c0.317,-0.8333 0.775,-1.5583 1.375,-2.175c0.6,-0.6333 1.325,-1.1333 2.175,-1.5c0.867,-0.3666 1.834,-0.55 2.9,-0.55c1.067,0 2.017,0.1834 2.85,0.55c0.85,0.3667 1.567,0.8584 2.15,1.475c0.6,0.6167 1.05,1.3334 1.35,2.15c0.316,0.8167 0.475,1.6667 0.475,2.55c0,0.2167 -0.009,0.425 -0.025,0.625c0,0.2 -0.017,0.3667 -0.05,0.5l-10.125,0c0.05,0.5167 0.175,0.975 0.375,1.375c0.2,0.4 0.459,0.7417 0.775,1.025c0.317,0.2834 0.675,0.5 1.075,0.65c0.4,0.15 0.817,0.225 1.25,0.225c0.667,0 1.292,-0.1583 1.875,-0.475c0.6,-0.3333 1.008,-0.7666 1.225,-1.3l2.875,0.8c-0.484,1 -1.258,1.825 -2.325,2.475c-1.05,0.6334 -2.308,0.95 -3.775,0.95zm3.4,-7.9c-0.083,-0.9833 -0.45,-1.7666 -1.1,-2.35c-0.633,-0.6 -1.408,-0.9 -2.325,-0.9c-0.45,0 -0.875,0.0834 -1.275,0.25c-0.383,0.15 -0.725,0.3667 -1.025,0.65c-0.3,0.2834 -0.55,0.625 -0.75,1.025c-0.183,0.4 -0.291,0.8417 -0.325,1.325l6.8,0z"/>
  <path id="svg_6" fill="#464646" d="m150.585,25.25c-1.05,0 -2,-0.175 -2.85,-0.525c-0.85,-0.3666 -1.575,-0.8583 -2.175,-1.475c-0.6,-0.6166 -1.066,-1.3333 -1.4,-2.15c-0.316,-0.8166 -0.474,-1.675 -0.474,-2.575c0,-0.9333 0.158,-1.8083 0.474,-2.625c0.317,-0.8333 0.775,-1.5583 1.375,-2.175c0.6,-0.6333 1.325,-1.1333 2.175,-1.5c0.867,-0.3666 1.833,-0.55 2.9,-0.55c1.067,0 2.017,0.1834 2.85,0.55c0.85,0.3667 1.567,0.8584 2.15,1.475c0.6,0.6167 1.05,1.3334 1.35,2.15c0.316,0.8167 0.475,1.6667 0.475,2.55c0,0.2167 -0.009,0.425 -0.025,0.625c0,0.2 -0.017,0.3667 -0.05,0.5l-10.125,0c0.05,0.5167 0.175,0.975 0.375,1.375c0.2,0.4 0.459,0.7417 0.775,1.025c0.317,0.2834 0.675,0.5 1.075,0.65c0.4,0.15 0.817,0.225 1.25,0.225c0.667,0 1.292,-0.1583 1.875,-0.475c0.6,-0.3333 1.008,-0.7666 1.225,-1.3l2.875,0.8c-0.484,1 -1.258,1.825 -2.325,2.475c-1.05,0.6334 -2.308,0.95 -3.775,0.95zm3.4,-7.9c-0.083,-0.9833 -0.45,-1.7666 -1.1,-2.35c-0.633,-0.6 -1.408,-0.9 -2.325,-0.9c-0.45,0 -0.875,0.0834 -1.275,0.25c-0.383,0.15 -0.725,0.3667 -1.025,0.65c-0.3,0.2834 -0.55,0.625 -0.75,1.025c-0.183,0.4 -0.291,0.8417 -0.325,1.325l6.8,0z"/>
  <path id="svg_7" fill="#464646" d="m168.425,25l-3.8,-5.675l-1.8,1.775l0,3.9l-3.35,0l0,-18.25l3.35,0l0,11.075l5.25,-5.9l3.575,0l-4.875,5.55l5.225,7.525l-3.575,0z"/>
  <path id="svg_8" fill="#2A7AE4" d="m52.7717,7.25l3.0498,0l6.7496,17.75l-3.5498,0l-1.6499,-4.425l-6.1996,0l-1.6249,4.425l-3.5498,0l6.7746,-17.75zm3.9748,10.9l-2.4499,-6.975l-2.5499,6.975l4.9998,0z"/>
  <path id="svg_9" fill="#2A7AE4" d="m64.1679,6.75l3.3498,0l0,14.05c0,0.4834 0.1167,0.8584 0.35,1.125c0.2333,0.2667 0.5666,0.4 1,0.4c0.1999,0 0.4166,-0.0333 0.6499,-0.1c0.25,-0.0666 0.4833,-0.15 0.7,-0.25l0.45,2.55c-0.45,0.2167 -0.975,0.3834 -1.575,0.5c-0.5999,0.1167 -1.1416,0.175 -1.6249,0.175c-1.0499,0 -1.8665,-0.275 -2.4498,-0.825c-0.5667,-0.5666 -0.85,-1.3666 -0.85,-2.4l0,-15.225z"/>
  <path id="svg_10" fill="#2A7AE4" d="m76.1268,25.25c-1.3499,0 -2.3749,-0.4333 -3.0748,-1.3c-0.7,-0.8666 -1.05,-2.15 -1.05,-3.85l0,-8.2l3.3499,0l0,7.475c0,2.0167 0.7249,3.025 2.1748,3.025c0.65,0 1.275,-0.1916 1.8749,-0.575c0.6167,-0.4 1.1166,-1 1.4999,-1.8l0,-8.125l3.3499,0l0,9.25c0,0.35 0.0583,0.6 0.1749,0.75c0.1334,0.15 0.3417,0.2334 0.625,0.25l0,2.85c-0.3333,0.0667 -0.6166,0.1084 -0.8499,0.125c-0.2167,0.0167 -0.4167,0.025 -0.6,0.025c-0.6,0 -1.0916,-0.1333 -1.4749,-0.4c-0.3667,-0.2833 -0.5833,-0.6666 -0.65,-1.15l-0.075,-1.05c-0.5833,0.9 -1.3332,1.575 -2.2499,2.025c-0.9166,0.45 -1.9248,0.675 -3.0248,0.675z"/>
  <path id="svg_11" fill="#2A7AE4" d="m95.3798,14.8c-1.0166,0.0167 -1.9249,0.2167 -2.7248,0.6c-0.8,0.3667 -1.3749,0.925 -1.7249,1.675l0,7.925l-3.3498,0l0,-13.1l3.0748,0l0,2.8c0.2333,-0.45 0.5083,-0.85 0.8249,-1.2c0.3167,-0.3666 0.6583,-0.6833 1.025,-0.95c0.3666,-0.2666 0.7333,-0.4666 1.0999,-0.6c0.3833,-0.15 0.75,-0.225 1.1,-0.225c0.1833,0 0.3166,0 0.3999,0c0.1,0 0.1917,0.0084 0.275,0.025l0,3.05z"/>
  <path id="svg_12" fill="#2A7AE4" d="m100.652,25.25c-0.634,0 -1.225,-0.1 -1.775,-0.3c-0.55,-0.2166 -1.025,-0.5083 -1.425,-0.875c-0.4,-0.3833 -0.717,-0.825 -0.95,-1.325c-0.217,-0.5 -0.325,-1.05 -0.325,-1.65c0,-0.6166 0.133,-1.1833 0.4,-1.7c0.283,-0.5333 0.666,-0.9833 1.15,-1.35c0.5,-0.3666 1.091,-0.65 1.775,-0.85c0.683,-0.2166 1.433,-0.325 2.25,-0.325c0.583,0 1.149,0.05 1.699,0.15c0.567,0.1 1.067,0.2417 1.5,0.425l0,-0.75c0,-0.8666 -0.25,-1.5333 -0.75,-2c-0.483,-0.4666 -1.208,-0.7 -2.174,-0.7c-0.7,0 -1.384,0.125 -2.05,0.375c-0.667,0.25 -1.35,0.6167 -2.05,1.1l-1.025,-2.125c1.683,-1.1166 3.5,-1.675 5.45,-1.675c1.883,0 3.341,0.4667 4.374,1.4c1.05,0.9167 1.575,2.25 1.575,4l0,4.075c0,0.35 0.058,0.6 0.175,0.75c0.133,0.15 0.342,0.2334 0.625,0.25l0,2.85c-0.567,0.1167 -1.058,0.175 -1.475,0.175c-0.633,0 -1.125,-0.1416 -1.475,-0.425c-0.333,-0.2833 -0.541,-0.6583 -0.625,-1.125l-0.075,-0.725c-0.583,0.7667 -1.291,1.35 -2.125,1.75c-0.833,0.4 -1.724,0.6 -2.674,0.6zm0.95,-2.45c0.566,0 1.099,-0.1 1.599,-0.3c0.517,-0.2 0.917,-0.4666 1.2,-0.8c0.367,-0.2833 0.55,-0.6 0.55,-0.95l0,-1.5c-0.4,-0.15 -0.833,-0.2666 -1.3,-0.35c-0.466,-0.1 -0.916,-0.15 -1.349,-0.15c-0.867,0 -1.575,0.2 -2.125,0.6c-0.55,0.3834 -0.825,0.875 -0.825,1.475c0,0.5667 0.216,1.0417 0.65,1.425c0.433,0.3667 0.966,0.55 1.6,0.55z"/>
 </g>
</svg>